<svg width="177" height="35" viewBox="0 0 177 35" fill="none" xmlns="http://www.w3.org/2000/svg">
<g clip-path="url(#clip0_1536_3018)">
<path fill-rule="evenodd" clip-rule="evenodd" d="M51.8189 18.5291H53.4344C52.8041 21.4279 50.3411 23.3799 47.0507 23.3799C43.1884 23.3799 40.0759 20.4994 40.0759 16.6914C40.0759 12.8826 43.1884 10.0214 47.0507 10.0214C50.3402 10.0214 52.8032 11.9542 53.4344 14.853H51.8189C51.267 12.7498 49.4936 11.424 47.0515 11.424C44.0167 11.424 41.6522 13.6783 41.6522 16.6914C41.6522 19.7038 44.0167 21.9781 47.0507 21.9781C49.4936 21.9781 51.2678 20.613 51.8189 18.5291ZM70.1325 16.7006C70.1325 20.4201 67.1519 23.3799 63.4533 23.3799C59.7546 23.3799 56.774 20.4201 56.774 16.7006C56.774 12.9811 59.7546 10.0214 63.4533 10.0214C67.1519 10.0214 70.1325 12.9811 70.1325 16.7006ZM68.623 16.7006C68.623 13.7784 66.3596 11.4257 63.4533 11.4257C60.5478 11.4257 58.2835 13.7784 58.2835 16.7006C58.2835 19.6228 60.5478 21.9756 63.4533 21.9756C66.3587 21.9756 68.623 19.6228 68.623 16.7006ZM85.9957 10.0214V23.3799H84.7601L76.6197 12.85V23.3799H75.142V10.0214H76.34L84.5171 20.689V10.0214H85.9957ZM93.393 11.4557V16.3667H100.197V17.8002H93.393V23.3799H91.8401V10.0214H101.024V11.4557H93.393ZM115.217 21.9455V23.3799H106.033V10.0214H107.631V21.9455H115.217ZM129.411 17.5305C129.411 21.0246 127.081 23.3799 123.566 23.3799C120.052 23.3799 117.722 21.0254 117.722 17.5305V10.0214H119.308V17.5305C119.308 20.0978 120.995 21.9513 123.566 21.9513C126.117 21.9513 127.825 20.0978 127.825 17.5305V10.0214H129.411V17.5305ZM136.78 11.4557V16.0327H143.668V17.4671H136.78V21.9463H144.439V23.3799H135.255V10.0214H144.439V11.4557H136.78ZM159.467 10.0214V23.3799H158.232L150.091 12.85V23.3799H148.614V10.0214H149.812L157.989 20.689V10.0214H159.467ZM175.331 11.4557H170.633V23.3799H169.156V11.4557H164.477V10.0214H175.331V11.4557ZM22.0211 17.5147C22.7516 17.4754 23.4822 17.452 24.2127 17.3986V16.8375C23.4822 16.7841 22.7516 16.7607 22.0211 16.7207L19.8295 16.653C18.5437 16.6138 17.2579 16.6029 15.9705 16.5946C15.968 15.3088 15.9622 14.0214 15.9279 12.7348L15.8662 10.5432C15.8286 9.81265 15.8077 9.0821 15.7559 8.35156H15.1364C15.0847 9.0821 15.0638 9.81265 15.0262 10.5432L14.9653 12.7348C14.9486 13.3385 14.9411 13.9429 14.9352 14.5466C14.6973 13.9914 14.4593 13.4361 14.213 12.8843L13.318 10.883C13.0033 10.2234 12.7044 9.5555 12.3771 8.9001L11.806 9.13804C12.0373 9.83185 12.2978 10.5156 12.5424 11.2044L13.3247 13.2533C13.5401 13.8169 13.7639 14.3771 13.9893 14.9381C13.5587 14.5145 13.1245 14.0946 12.6868 13.6783L11.0938 12.1721C10.5511 11.682 10.0193 11.1802 9.46577 10.7002L9.02911 11.1376C9.50835 11.6912 10.0101 12.223 10.5002 12.7657L12.0064 14.3587C12.4222 14.797 12.8438 15.2295 13.2663 15.6612C12.7052 15.4357 12.145 15.212 11.5806 14.9966L9.53256 14.2143C8.84376 13.9696 8.15998 13.7092 7.46533 13.477L7.22822 14.049C7.88362 14.3762 8.55071 14.6751 9.21112 14.9899L11.2124 15.8849C11.7634 16.1312 12.3186 16.3692 12.8739 16.6063C12.2702 16.613 11.6666 16.6205 11.0621 16.6363L8.87131 16.6981C8.14077 16.7357 7.41023 16.7566 6.67969 16.8083V17.4278C7.41023 17.4796 8.14077 17.5005 8.87131 17.538L11.0629 17.599C12.3504 17.634 13.637 17.6399 14.9235 17.6424C14.9319 18.9281 14.9419 20.2147 14.9812 21.5013L15.0496 23.693C15.0889 24.4235 15.1122 25.154 15.1657 25.8846H15.7267C15.7802 25.154 15.8035 24.4235 15.8436 23.693L15.9112 21.5013C15.9304 20.8827 15.9405 20.264 15.9496 19.6453C16.1934 20.2139 16.4397 20.7816 16.6944 21.346L17.5961 23.344C17.9117 24.0035 18.2122 24.6698 18.542 25.3252L19.0597 25.109C18.8301 24.4143 18.5729 23.7305 18.3291 23.0401L17.5527 20.9904C17.3339 20.4109 17.1068 19.8357 16.8781 19.2604C17.3214 19.6921 17.7656 20.1221 18.2172 20.5462L19.8144 22.0482C20.3588 22.5366 20.8915 23.0367 21.4467 23.516L21.8441 23.1185C21.3648 22.5642 20.8647 22.0307 20.3763 21.4863L18.8743 19.8883C18.4498 19.4386 18.0214 18.9924 17.5894 18.5499C18.1638 18.7795 18.7391 19.0058 19.3177 19.2254L21.369 20.001C22.0586 20.2448 22.7424 20.5019 23.4379 20.7324L23.6533 20.2131C22.9979 19.8849 22.3325 19.5827 21.6721 19.2671L19.6742 18.3654C19.1098 18.1116 18.542 17.8661 17.9743 17.6207C18.5921 17.6123 19.2108 17.6023 19.8295 17.5831L22.0211 17.5147Z" fill="#173361"/>
<path fill-rule="evenodd" clip-rule="evenodd" d="M15.8633 30.8946C8.03691 30.8946 1.66992 24.5276 1.66992 16.7012C1.66992 8.8748 8.03691 2.50781 15.8633 2.50781C23.6897 2.50781 30.0567 8.8748 30.0567 16.7012C30.0567 24.5276 23.6897 30.8946 15.8633 30.8946ZM15.8633 3.83531C8.76912 3.83531 2.99742 9.60618 2.99742 16.7012C2.99742 23.7962 8.76912 29.5671 15.8633 29.5671C22.9575 29.5671 28.7292 23.7954 28.7292 16.7012C28.7292 9.60702 22.9575 3.83531 15.8633 3.83531Z" fill="#173361"/>
</g>
<defs>
<clipPath id="clip0_1536_3018">
<rect width="177" height="34.2311" fill="white"/>
</clipPath>
</defs>
</svg>
