<svg width="113" height="34" viewBox="0 0 113 34" fill="none" xmlns="http://www.w3.org/2000/svg">
<g clip-path="url(#clip0_976_2450)">
<path d="M12.238 19.061H3.94035V27.8019H0V6.23438H3.94035V15.2702H12.238V6.23438H16.1775V27.8019H12.238V19.061Z" fill="#213343"/>
<path d="M28.7856 20.8313C28.7856 22.6276 27.3223 24.0892 25.5264 24.0892C23.7301 24.0892 22.2678 22.6276 22.2678 20.8313V11.5938H18.5366V20.8313C18.5366 24.6853 21.6723 27.8202 25.5264 27.8202C29.3798 27.8202 32.5155 24.6853 32.5155 20.8313V11.5938H28.7856V20.8313Z" fill="#213343"/>
<path d="M56.4719 12.5444C56.4719 10.6504 57.7255 10.0498 59.0979 10.0498C60.203 10.0498 61.6654 10.8909 62.6195 11.9129L65.0664 9.02856C63.8437 7.3765 61.3667 6.23438 59.3371 6.23438C55.2772 6.23438 52.3521 8.60817 52.3521 12.5444C52.3521 19.8452 61.2771 17.531 61.2771 21.6182C61.2771 22.8786 60.0538 23.9914 58.6514 23.9914C56.4419 23.9914 55.7252 22.9097 54.7108 21.7678L51.9941 24.5915C53.7263 26.7249 55.8747 27.8072 58.4418 27.8072C62.2922 27.8072 65.3966 25.4035 65.3966 21.6472C65.3966 13.5353 56.4719 16.0594 56.4719 12.5444Z" fill="#213343"/>
<path d="M111.686 24.3573C109.478 24.3573 108.851 23.4027 108.851 21.9396V15.463H112.283V12.1801H108.851V7.85156L105.062 9.55269V22.7457C105.062 26.1189 107.389 27.8205 110.581 27.8205C111.059 27.8205 111.716 27.7897 112.075 27.7012L113 24.2988C112.582 24.3276 112.105 24.3573 111.686 24.3573Z" fill="#213343"/>
<path d="M43.0078 11.7015C41.1571 11.7015 39.8652 12.2387 38.6176 13.4632V6.36328H34.8745V19.5216C34.8745 24.4467 38.4353 27.8199 42.4362 27.8199C46.8837 27.8199 50.7805 24.3867 50.7805 19.761C50.7805 15.1938 47.1872 11.7015 43.0078 11.7015ZM42.9846 24.0527C40.6397 24.0527 38.7391 22.152 38.7391 19.8072C38.7391 17.4626 40.6397 15.5618 42.9846 15.5618C45.3291 15.5618 47.2299 17.4626 47.2299 19.8072C47.2299 22.152 45.3291 24.0527 42.9846 24.0527Z" fill="#213343"/>
<path d="M83.6453 19.5667C83.6453 14.9409 79.7484 11.5078 75.301 11.5078C71.3 11.5078 67.7393 14.8809 67.7393 19.806V32.9644H71.4824V25.8644C72.73 27.089 74.0218 27.6262 75.8726 27.6262C80.0519 27.6262 83.6453 24.1338 83.6453 19.5667ZM80.0947 19.5204C80.0947 21.8651 78.1939 23.7659 75.8493 23.7659C73.5044 23.7659 71.6038 21.8651 71.6038 19.5204C71.6038 17.1757 73.5044 15.275 75.8493 15.275C78.1939 15.275 80.0947 17.1757 80.0947 19.5204Z" fill="#213343"/>
<path d="M95.7401 11.3259V7.56601C96.7215 7.10238 97.4091 6.10952 97.4091 4.95723V4.87034C97.4091 3.28022 96.108 1.97918 94.5179 1.97918H94.4311C92.8409 1.97918 91.5398 3.28022 91.5398 4.87034V4.95723C91.5398 6.10952 92.2276 7.10252 93.209 7.56609V11.326C91.7477 11.5517 90.4126 12.1544 89.311 13.0413L78.9876 5.01074C79.0556 4.74922 79.1032 4.47977 79.1035 4.19703C79.1059 2.39591 77.6477 0.933972 75.8465 0.931643C74.0453 0.929391 72.5834 2.38763 72.5811 4.18874C72.5789 5.98985 74.037 7.45179 75.8382 7.45405C76.4252 7.45477 76.9685 7.28806 77.4447 7.01724L87.5998 14.9171C86.7361 16.2207 86.2303 17.7822 86.2303 19.4632C86.2303 21.2231 86.7862 22.8508 87.7259 24.1898L84.6375 27.2782C84.3934 27.205 84.1399 27.1537 83.8718 27.1537C82.3918 27.1537 81.1919 28.3536 81.1919 29.8336C81.1919 31.3137 82.3918 32.5135 83.8718 32.5135C85.3519 32.5135 86.5517 31.3137 86.5517 29.8336C86.5517 29.5656 86.5005 29.3121 86.4272 29.068L89.4821 26.0131C90.8687 27.0717 92.5955 27.7075 94.4747 27.7075C99.0278 27.7075 102.719 24.0164 102.719 19.4632C102.719 15.3414 99.6909 11.9361 95.7401 11.3259ZM94.4747 23.6899C92.1403 23.6899 90.2477 21.7976 90.2477 19.4632C90.2477 17.1288 92.1403 15.2364 94.4747 15.2364C96.8088 15.2364 98.7015 17.1288 98.7015 19.4632C98.7015 21.7976 96.8088 23.6899 94.4747 23.6899Z" fill="#FF5C35"/>
</g>
<defs>
<clipPath id="clip0_976_2450">
<rect width="113" height="32.0322" fill="white" transform="translate(0 0.933594)"/>
</clipPath>
</defs>
</svg>
