<svg width="108" height="25" viewBox="0 0 108 25" fill="none" xmlns="http://www.w3.org/2000/svg">
<path d="M22.6521 24.2352H3.43609C2.16587 24.2352 0.960802 23.5666 0.374549 22.425C-0.293126 21.1202 -0.0488542 19.5546 0.97708 18.527L14.3469 5.13735H4.77143C2.1333 5.13735 0 3.00087 0 0.358799H17.7015C18.9717 0.358799 20.1768 1.02747 20.763 2.1691C21.4308 3.47382 21.1865 5.03949 20.1605 6.06697L6.79075 19.4567H17.8807C20.5188 19.4567 22.6521 21.5932 22.6521 24.2352ZM98.7022 0C95.9502 0 93.4744 1.19056 91.7806 3.09872C90.0712 1.19056 87.5957 0 84.86 0C79.7463 0 75.5776 4.37083 75.5776 9.47553V24.2352C78.2157 24.2352 80.3489 22.0987 80.3489 19.4567V9.42662C80.3489 6.96395 82.2543 4.8764 84.6969 4.77855C87.2701 4.68069 89.4034 6.75192 89.4034 9.31246V19.4567C89.4034 22.0987 91.5366 24.2352 94.1746 24.2352V9.42662C94.1746 6.96395 96.0802 4.8764 98.5225 4.77855C101.096 4.68069 103.229 6.75192 103.229 9.31246V19.4567C103.229 22.0987 105.363 24.2352 108 24.2352V9.47553C107.984 4.37083 103.815 0 98.7022 0ZM46.721 12.297C46.721 19.0816 41.2167 24.5941 34.4422 24.5941C27.6678 24.5941 22.1636 19.0816 22.1636 12.297C22.1636 5.51244 27.6841 0 34.4422 0C41.2005 0 46.721 5.51244 46.721 12.297ZM41.9495 12.297C41.9495 8.15453 38.5786 4.77855 34.4422 4.77855C30.306 4.77855 26.935 8.15453 26.935 12.297C26.935 16.4396 30.306 19.8155 34.4422 19.8155C38.5786 19.8155 41.9495 16.4396 41.9495 12.297ZM73.1836 12.297C73.1836 19.0816 67.6797 24.5941 60.9053 24.5941C54.1303 24.5941 48.6262 19.0816 48.6262 12.297C48.6262 5.51244 54.1471 0 60.9053 0C67.663 0 73.1836 5.51244 73.1836 12.297ZM68.4124 12.297C68.4124 8.15453 65.0415 4.77855 60.9053 4.77855C56.7689 4.77855 53.3977 8.15453 53.3977 12.297C53.3977 16.4396 56.7689 19.8155 60.9053 19.8155C65.0415 19.8155 68.4124 16.4396 68.4124 12.297Z" fill="#0B5CFF"/>
</svg>
