<svg width="535" height="326" viewBox="0 0 535 326" fill="none" xmlns="http://www.w3.org/2000/svg">
<rect width="511" height="326" rx="24" fill="url(#paint0_linear_1896_3927)" fill-opacity="0.2"/>
<path d="M47.7344 62.4205C47.6738 61.8826 47.4238 61.4659 46.9844 61.1705C46.545 60.8712 45.992 60.7216 45.3253 60.7216C44.848 60.7216 44.4351 60.7973 44.0866 60.9489C43.7382 61.0966 43.4673 61.3011 43.2741 61.5625C43.0848 61.8201 42.9901 62.1136 42.9901 62.4432C42.9901 62.7197 43.0545 62.9583 43.1832 63.1591C43.3158 63.3598 43.4882 63.5284 43.7003 63.6648C43.9162 63.7973 44.1473 63.9091 44.3935 64C44.6397 64.0871 44.8764 64.1591 45.1037 64.2159L46.2401 64.5114C46.6113 64.6023 46.992 64.7254 47.3821 64.8807C47.7723 65.036 48.134 65.2405 48.4673 65.4943C48.8007 65.7481 49.0696 66.0625 49.2741 66.4375C49.4825 66.8125 49.5866 67.2614 49.5866 67.7841C49.5866 68.4432 49.4162 69.0284 49.0753 69.5398C48.7382 70.0511 48.2476 70.4545 47.6037 70.75C46.9635 71.0455 46.1889 71.1932 45.2798 71.1932C44.4086 71.1932 43.6548 71.0549 43.0185 70.7784C42.3821 70.5019 41.884 70.1098 41.5241 69.6023C41.1643 69.0909 40.9654 68.4848 40.9276 67.7841H42.6889C42.723 68.2045 42.8594 68.5549 43.098 68.8352C43.3404 69.1117 43.6491 69.3182 44.0241 69.4545C44.4029 69.5871 44.8177 69.6534 45.2685 69.6534C45.7647 69.6534 46.206 69.5758 46.5923 69.4205C46.9825 69.2614 47.2893 69.0417 47.5128 68.7614C47.7363 68.4773 47.848 68.1458 47.848 67.767C47.848 67.4223 47.7495 67.1402 47.5526 66.9205C47.3594 66.7008 47.0961 66.5189 46.7628 66.375C46.4332 66.2311 46.0601 66.1042 45.6435 65.9943L44.2685 65.6193C43.3366 65.3655 42.598 64.9924 42.0526 64.5C41.5109 64.0076 41.2401 63.3561 41.2401 62.5455C41.2401 61.875 41.4219 61.2898 41.7855 60.7898C42.1491 60.2898 42.6416 59.9015 43.2628 59.625C43.884 59.3447 44.5848 59.2045 45.3651 59.2045C46.1529 59.2045 46.848 59.3428 47.4503 59.6193C48.0563 59.8958 48.5336 60.2765 48.8821 60.7614C49.2306 61.2424 49.4124 61.7955 49.4276 62.4205H47.7344ZM55.3097 71.1761C54.4498 71.1761 53.7093 70.9924 53.0881 70.625C52.4706 70.2538 51.9934 69.733 51.6562 69.0625C51.3229 68.3883 51.1562 67.5985 51.1562 66.6932C51.1562 65.7992 51.3229 65.0114 51.6562 64.3295C51.9934 63.6477 52.4631 63.1155 53.0653 62.733C53.6714 62.3504 54.3797 62.1591 55.1903 62.1591C55.6828 62.1591 56.16 62.2405 56.6222 62.4034C57.0843 62.5663 57.4991 62.822 57.8665 63.1705C58.2339 63.5189 58.5237 63.9716 58.7358 64.5284C58.9479 65.0814 59.054 65.7538 59.054 66.5455V67.1477H52.1165V65.875H57.3892C57.3892 65.428 57.2983 65.0322 57.1165 64.6875C56.9347 64.339 56.679 64.0644 56.3494 63.8636C56.0237 63.6629 55.6411 63.5625 55.2017 63.5625C54.7244 63.5625 54.3078 63.6799 53.9517 63.9148C53.5994 64.1458 53.3267 64.4489 53.1335 64.8239C52.9441 65.1951 52.8494 65.5985 52.8494 66.0341V67.0284C52.8494 67.6117 52.9517 68.108 53.1562 68.517C53.3646 68.9261 53.6544 69.2386 54.0256 69.4545C54.3968 69.6667 54.8305 69.7727 55.3267 69.7727C55.6487 69.7727 55.9422 69.7273 56.2074 69.6364C56.4725 69.5417 56.7017 69.4015 56.8949 69.2159C57.0881 69.0303 57.2358 68.8011 57.3381 68.5284L58.946 68.8182C58.8172 69.2917 58.5862 69.7064 58.2528 70.0625C57.9233 70.4148 57.5085 70.6894 57.0085 70.8864C56.5123 71.0795 55.946 71.1761 55.3097 71.1761ZM62.6378 59.3636V71H60.9389V59.3636H62.6378ZM68.6847 71.1761C67.8248 71.1761 67.0843 70.9924 66.4631 70.625C65.8456 70.2538 65.3684 69.733 65.0312 69.0625C64.6979 68.3883 64.5312 67.5985 64.5312 66.6932C64.5312 65.7992 64.6979 65.0114 65.0312 64.3295C65.3684 63.6477 65.8381 63.1155 66.4403 62.733C67.0464 62.3504 67.7547 62.1591 68.5653 62.1591C69.0578 62.1591 69.535 62.2405 69.9972 62.4034C70.4593 62.5663 70.8741 62.822 71.2415 63.1705C71.6089 63.5189 71.8987 63.9716 72.1108 64.5284C72.3229 65.0814 72.429 65.7538 72.429 66.5455V67.1477H65.4915V65.875H70.7642C70.7642 65.428 70.6733 65.0322 70.4915 64.6875C70.3097 64.339 70.054 64.0644 69.7244 63.8636C69.3987 63.6629 69.0161 63.5625 68.5767 63.5625C68.0994 63.5625 67.6828 63.6799 67.3267 63.9148C66.9744 64.1458 66.7017 64.4489 66.5085 64.8239C66.3191 65.1951 66.2244 65.5985 66.2244 66.0341V67.0284C66.2244 67.6117 66.3267 68.108 66.5312 68.517C66.7396 68.9261 67.0294 69.2386 67.4006 69.4545C67.7718 69.6667 68.2055 69.7727 68.7017 69.7727C69.0237 69.7727 69.3172 69.7273 69.5824 69.6364C69.8475 69.5417 70.0767 69.4015 70.2699 69.2159C70.4631 69.0303 70.6108 68.8011 70.7131 68.5284L72.321 68.8182C72.1922 69.2917 71.9612 69.7064 71.6278 70.0625C71.2983 70.4148 70.8835 70.6894 70.3835 70.8864C69.8873 71.0795 69.321 71.1761 68.6847 71.1761ZM77.9901 71.1761C77.1454 71.1761 76.4181 70.9848 75.8082 70.6023C75.2022 70.2159 74.7363 69.6837 74.4105 69.0057C74.0848 68.3277 73.9219 67.5511 73.9219 66.6761C73.9219 65.7898 74.0885 65.0076 74.4219 64.3295C74.7552 63.6477 75.2249 63.1155 75.831 62.733C76.437 62.3504 77.151 62.1591 77.973 62.1591C78.6359 62.1591 79.2268 62.2822 79.7457 62.5284C80.2647 62.7708 80.6832 63.1117 81.0014 63.5511C81.3234 63.9905 81.5147 64.5038 81.5753 65.0909H79.9219C79.831 64.6818 79.6226 64.3295 79.2969 64.0341C78.9749 63.7386 78.5431 63.5909 78.0014 63.5909C77.5279 63.5909 77.1132 63.7159 76.7571 63.9659C76.4048 64.2121 76.1302 64.5644 75.9332 65.0227C75.7363 65.4773 75.6378 66.0152 75.6378 66.6364C75.6378 67.2727 75.7344 67.822 75.9276 68.2841C76.1207 68.7462 76.3935 69.1042 76.7457 69.358C77.1018 69.6117 77.5204 69.7386 78.0014 69.7386C78.3234 69.7386 78.6151 69.6799 78.8764 69.5625C79.1416 69.4413 79.3632 69.2689 79.5412 69.0455C79.723 68.822 79.8499 68.553 79.9219 68.2386H81.5753C81.5147 68.803 81.331 69.3068 81.0241 69.75C80.7173 70.1932 80.3063 70.5417 79.7912 70.7955C79.2798 71.0492 78.6795 71.1761 77.9901 71.1761ZM87.4659 62.2727V63.6364H82.6989V62.2727H87.4659ZM83.9773 60.1818H85.6761V68.4375C85.6761 68.767 85.7254 69.0152 85.8239 69.1818C85.9223 69.3447 86.0492 69.4564 86.2045 69.517C86.3636 69.5739 86.536 69.6023 86.7216 69.6023C86.858 69.6023 86.9773 69.5928 87.0795 69.5739C87.1818 69.5549 87.2614 69.5398 87.3182 69.5284L87.625 70.9318C87.5265 70.9697 87.3864 71.0076 87.2045 71.0455C87.0227 71.0871 86.7955 71.1098 86.5227 71.1136C86.0758 71.1212 85.6591 71.0417 85.2727 70.875C84.8864 70.7083 84.5739 70.4508 84.3352 70.1023C84.0966 69.7538 83.9773 69.3163 83.9773 68.7898V60.1818ZM103.381 63.1477H101.608C101.54 62.7689 101.413 62.4356 101.227 62.1477C101.042 61.8598 100.814 61.6155 100.545 61.4148C100.277 61.214 99.9754 61.0625 99.642 60.9602C99.3125 60.858 98.9621 60.8068 98.5909 60.8068C97.9205 60.8068 97.3201 60.9754 96.7898 61.3125C96.2633 61.6496 95.8466 62.1439 95.5398 62.7955C95.2367 63.447 95.0852 64.2424 95.0852 65.1818C95.0852 66.1288 95.2367 66.928 95.5398 67.5795C95.8466 68.2311 96.2652 68.7235 96.7955 69.0568C97.3258 69.3902 97.9223 69.5568 98.5852 69.5568C98.9527 69.5568 99.3011 69.5076 99.6307 69.4091C99.964 69.3068 100.265 69.1572 100.534 68.9602C100.803 68.7633 101.03 68.5227 101.216 68.2386C101.405 67.9508 101.536 67.6212 101.608 67.25L103.381 67.2557C103.286 67.8277 103.102 68.3542 102.83 68.8352C102.561 69.3125 102.214 69.7254 101.79 70.0739C101.369 70.4186 100.888 70.6856 100.347 70.875C99.8049 71.0644 99.214 71.1591 98.5739 71.1591C97.5663 71.1591 96.6686 70.9205 95.8807 70.4432C95.0928 69.9621 94.4716 69.2746 94.017 68.3807C93.5663 67.4867 93.3409 66.4205 93.3409 65.1818C93.3409 63.9394 93.5682 62.8731 94.0227 61.983C94.4773 61.089 95.0985 60.4034 95.8864 59.9261C96.6742 59.4451 97.5701 59.2045 98.5739 59.2045C99.1913 59.2045 99.767 59.2936 100.301 59.4716C100.839 59.6458 101.322 59.9034 101.75 60.2443C102.178 60.5814 102.532 60.9943 102.812 61.483C103.093 61.9678 103.282 62.5227 103.381 63.1477ZM107.044 65.8182V71H105.345V59.3636H107.021V63.6932H107.129C107.334 63.2235 107.646 62.8504 108.067 62.5739C108.487 62.2973 109.036 62.1591 109.714 62.1591C110.313 62.1591 110.836 62.2822 111.283 62.5284C111.733 62.7746 112.082 63.142 112.328 63.6307C112.578 64.1155 112.703 64.7216 112.703 65.4489V71H111.004V65.6534C111.004 65.0133 110.839 64.517 110.51 64.1648C110.18 63.8087 109.722 63.6307 109.135 63.6307C108.733 63.6307 108.374 63.7159 108.055 63.8864C107.741 64.0568 107.493 64.3068 107.311 64.6364C107.133 64.9621 107.044 65.3561 107.044 65.8182ZM117.51 71.1932C116.957 71.1932 116.457 71.0909 116.01 70.8864C115.563 70.678 115.209 70.3769 114.947 69.983C114.69 69.589 114.561 69.1061 114.561 68.5341C114.561 68.0417 114.656 67.6364 114.845 67.3182C115.035 67 115.29 66.7481 115.612 66.5625C115.934 66.3769 116.294 66.2367 116.692 66.142C117.089 66.0473 117.495 65.9754 117.908 65.9261C118.43 65.8655 118.855 65.8163 119.18 65.7784C119.506 65.7367 119.743 65.6705 119.891 65.5795C120.038 65.4886 120.112 65.3409 120.112 65.1364V65.0966C120.112 64.6004 119.972 64.2159 119.692 63.9432C119.415 63.6705 119.002 63.5341 118.453 63.5341C117.881 63.5341 117.43 63.661 117.101 63.9148C116.775 64.1648 116.55 64.4432 116.425 64.75L114.828 64.3864C115.018 63.8561 115.294 63.428 115.658 63.1023C116.025 62.7727 116.447 62.5341 116.925 62.3864C117.402 62.2348 117.904 62.1591 118.43 62.1591C118.779 62.1591 119.148 62.2008 119.538 62.2841C119.932 62.3636 120.3 62.5114 120.641 62.7273C120.985 62.9432 121.268 63.2519 121.487 63.6534C121.707 64.0511 121.817 64.5682 121.817 65.2045V71H120.158V69.8068H120.089C119.98 70.0265 119.815 70.2424 119.595 70.4545C119.375 70.6667 119.093 70.8428 118.749 70.983C118.404 71.1231 117.991 71.1932 117.51 71.1932ZM117.879 69.8295C118.349 69.8295 118.75 69.7367 119.084 69.5511C119.421 69.3655 119.677 69.1231 119.851 68.8239C120.029 68.5208 120.118 68.197 120.118 67.8523V66.7273C120.057 66.7879 119.94 66.8447 119.766 66.8977C119.595 66.947 119.4 66.9905 119.18 67.0284C118.961 67.0625 118.747 67.0947 118.538 67.125C118.33 67.1515 118.156 67.1742 118.016 67.1932C117.686 67.2348 117.385 67.3049 117.112 67.4034C116.843 67.5019 116.627 67.6439 116.464 67.8295C116.305 68.0114 116.226 68.2538 116.226 68.5568C116.226 68.9773 116.381 69.2955 116.692 69.5114C117.002 69.7235 117.398 69.8295 117.879 69.8295ZM128.153 62.2727V63.6364H123.386V62.2727H128.153ZM124.665 60.1818H126.364V68.4375C126.364 68.767 126.413 69.0152 126.511 69.1818C126.61 69.3447 126.737 69.4564 126.892 69.517C127.051 69.5739 127.223 69.6023 127.409 69.6023C127.545 69.6023 127.665 69.5928 127.767 69.5739C127.869 69.5549 127.949 69.5398 128.006 69.5284L128.312 70.9318C128.214 70.9697 128.074 71.0076 127.892 71.0455C127.71 71.0871 127.483 71.1098 127.21 71.1136C126.763 71.1212 126.347 71.0417 125.96 70.875C125.574 70.7083 125.261 70.4508 125.023 70.1023C124.784 69.7538 124.665 69.3163 124.665 68.7898V60.1818Z" fill="black"/>
<rect x="38.5" y="99.5" width="154" height="50" rx="7.5" fill="#DCF2F2" stroke="#47BEB9"/>
<rect x="380" y="99" width="155" height="51" rx="8" fill="#DCF2F2"/>
<rect x="396" y="120" width="51" height="10" rx="5" fill="#B4DEDE"/>
<rect x="54" y="120" width="51" height="10" rx="5" fill="#B4DEDE"/>
<rect x="209" y="99" width="155" height="51" rx="8" fill="#DCF2F2"/>
<rect x="225" y="120" width="51" height="10" rx="5" fill="#B4DEDE"/>
<g opacity="0.5">
<rect x="38" y="166" width="155" height="51" rx="8" fill="#DCF2F2"/>
<rect x="54" y="187" width="51" height="10" rx="5" fill="#B4DEDE"/>
</g>
<g opacity="0.5">
<rect x="209" y="166" width="155" height="51" rx="8" fill="#DCF2F2"/>
<rect x="225" y="187" width="51" height="10" rx="5" fill="#B4DEDE"/>
</g>
<g opacity="0.5">
<rect x="380" y="166" width="155" height="51" rx="8" fill="#DCF2F2"/>
<rect x="396" y="187" width="51" height="10" rx="5" fill="#B4DEDE"/>
</g>
<defs>
<linearGradient id="paint0_linear_1896_3927" x1="255.5" y1="0" x2="255.5" y2="326" gradientUnits="userSpaceOnUse">
<stop stop-color="#47BEB9"/>
<stop offset="1" stop-color="white" stop-opacity="0.46"/>
</linearGradient>
</defs>
</svg>
