<svg version="1.1" xmlns="http://www.w3.org/2000/svg" xmlns:xlink="http://www.w3.org/1999/xlink" width="48px" height="48px" viewBox="0,0,256,256"><g transform=""><g fill="none" fill-rule="nonzero" stroke="none" stroke-width="none" stroke-linecap="none" stroke-linejoin="none" stroke-miterlimit="10" stroke-dasharray="" stroke-dashoffset="0" font-family="none" font-weight="none" font-size="none" text-anchor="none" style="mix-blend-mode: normal"><g transform="scale(5.33333,5.33333)"><path d="M32.9,32.8c1.3,0 2.5,-0.9 2.9,-2.1c0.3,-1 0.8,-2.1 1.2,-3.2c1,-2.2 2,-4.8 2,-7.4c0,-7.3 -4.3,-12 -11,-12c-6.7,0 -11,4.5 -11,11.5c0,2.5 1,5.1 2,7.5c0.5,1.2 1,2.4 1.3,3.5c0.4,1.3 1.5,2.2 2.9,2.2z" fill="#40b5b5" stroke="none" stroke-width="1" stroke-linecap="butt" stroke-linejoin="miter"></path><path d="M27.5,4.5c-1.1,-0.3 -2.3,-0.5 -3.5,-0.5c-6.7,0 -11,4.4 -11,11.3c0,2.5 1,5 2,7.4c0.8,2.1 1.6,4.1 1.6,5.7" fill="none" stroke="#18193f" stroke-width="3" stroke-linecap="round" stroke-linejoin="round"></path><path d="M31.4,28.4c0,-1.6 0.8,-3.3 1.6,-5.2c1,-2.2 2,-4.7 2,-7.3c0,-2.6 -0.5,-4.8 -1.6,-6.6" fill="none" stroke="#18193f" stroke-width="3" stroke-linecap="round" stroke-linejoin="round"></path><circle cx="18.5" cy="19.5" r="1.5" fill="#18193f" stroke="none" stroke-width="1" stroke-linecap="butt" stroke-linejoin="miter"></circle><circle cx="29.5" cy="19.5" r="1.5" fill="#18193f" stroke="none" stroke-width="1" stroke-linecap="butt" stroke-linejoin="miter"></circle><path d="M26.9,31.2v2.4v0c0,5.7 5,9.7 10.1,9.7c2.7,0 5.5,-1.6 5.5,-1.6" fill="none" stroke="#18193f" stroke-width="3" stroke-linecap="round" stroke-linejoin="round"></path><path d="M31.4,28.4c0,0 -0.7,8.1 5.9,8.1v0c2.4,0 4.4,-1.8 4.4,-4.4c0,-2.9 -2.9,-4.3 -2.9,-7.7c0,-3.5 3.3,-4.1 4.4,-4.1" fill="none" stroke="#18193f" stroke-width="3" stroke-linecap="round" stroke-linejoin="round"></path><path d="M16.6,28.3c0,0 0.7,8.1 -5.9,8.1v0c-2.4,0 -4.4,-1.8 -4.4,-4.4c0,-2.9 2.9,-4.3 2.9,-7.7c0,-3.5 -3.3,-4.1 -4.4,-4.1" fill="none" stroke="#18193f" stroke-width="3" stroke-linecap="round" stroke-linejoin="round"></path><path d="M8.2,42.9c-1.5,-0.5 -2.7,-1.2 -2.7,-1.2" fill="none" stroke="#18193f" stroke-width="3" stroke-linecap="round" stroke-linejoin="round"></path><path d="M21.1,31.4v2.3v0c0,5.1 -3.9,8.8 -8.4,9.6" fill="none" stroke="#18193f" stroke-width="3" stroke-linecap="round" stroke-linejoin="round"></path></g></g></g></svg>