<?xml version="1.0" encoding="utf-8"?>
<!-- Generator: Adobe Illustrator 26.2.1, SVG Export Plug-In . SVG Version: 6.00 Build 0)  -->
<svg version="1.1"
	 id="svg16893" xmlns:cc="http://creativecommons.org/ns#" xmlns:dc="http://purl.org/dc/elements/1.1/" xmlns:rdf="http://www.w3.org/1999/02/22-rdf-syntax-ns#" xmlns:svg="http://www.w3.org/2000/svg"
	 xmlns="http://www.w3.org/2000/svg" xmlns:xlink="http://www.w3.org/1999/xlink" x="0px" y="0px" viewBox="0 0 170.5 47"
	 style="enable-background:new 0 0 170.5 47;" xml:space="preserve">
<style type="text/css">
	.st0{fill:#160647;}
</style>
<g id="layer1" transform="translate(52.439903,-476.81564)">
	<g id="g15902" transform="matrix(2.1025538,0,0,-2.1025538,-945.43842,1967.8152)">
		<g>
			<g id="g15904">
				<g id="g15910" transform="translate(500.6749,698.2117)">
					<path id="path15912" class="st0" d="M-61.6,9.8c-0.2-0.2-0.3-0.5-0.3-1V-3.9H-62c0,0-7,12.5-7.4,13.1c-0.2,0.4-0.5,0.7-0.9,0.9
						c-0.4,0.2-0.7,0.3-1.4,0.3h-2.3c-0.5,0-0.9-0.2-1.1-0.5c-0.2-0.2-0.3-0.5-0.3-1V-9.2c0-0.5,0.1-0.7,0.3-1
						c0.2-0.3,0.6-0.5,1.1-0.5h1.3c0.5,0,0.9,0.2,1.1,0.5c0.2,0.2,0.3,0.5,0.3,1V3.9h0.1c0,0,7.3-12.9,7.6-13.4
						c0.4-0.7,1.1-1.2,2.1-1.2h2.2c0.5,0,0.9,0.2,1.1,0.5c0.2,0.2,0.3,0.5,0.3,1V7.1h29.5c0.3,0,0.5,0.1,0.7,0.2
						c0.2,0.2,0.3,0.4,0.3,0.7v1.2c0,0.3-0.1,0.6-0.3,0.7c-0.2,0.1-0.4,0.2-0.7,0.2h-32.2C-61,10.3-61.4,10.1-61.6,9.8 M-48.7,5
						c-4.9,0-7.6-3.8-7.6-7.9c0-4.3,2.9-8.1,7.7-8.1c2.4,0,4.7,0.9,6,2.5c0.6,0.7,1,1.6,1,2.2c0,0.2,0,0.4-0.2,0.5
						c-0.1,0.1-0.3,0.2-0.6,0.2h-2.3c-0.5,0-0.8-0.2-1-0.5c-0.7-1-1.6-1.5-3-1.5c-2.1,0-3.5,1.6-3.6,3.4h9.8c0.4,0,0.7,0.1,1,0.3
						c0.2,0.2,0.4,0.6,0.4,1.2c0,1.8-0.6,3.8-1.8,5.2C-44.2,4-46.1,5-48.7,5 M-33.6,5C-37.4,5-40,3.2-40,0.2c0-1,0.4-1.9,1-2.6
						c0.7-0.8,1.8-1.3,3.2-1.7l3.2-0.8c0.9-0.2,1.7-0.5,1.7-1.3c0-1.2-1.3-1.6-2.6-1.6c-0.7,0-1.4,0.1-1.9,0.4
						c-0.4,0.2-0.7,0.5-1,0.9c-0.2,0.3-0.3,0.6-0.6,0.7c-0.2,0.1-0.4,0.1-0.8,0.1h-1.8c-0.4,0-0.6-0.1-0.7-0.3
						c-0.1-0.2-0.2-0.4-0.2-0.6c0-0.6,0.2-1.3,0.7-1.9c1.1-1.4,3.3-2.6,6.2-2.6c2.8,0,6.7,1.2,6.7,5c0,1-0.3,1.8-0.8,2.5
						c-0.7,0.9-1.6,1.5-3.2,1.9L-34-0.8c-1.3,0.3-1.9,0.6-1.9,1.4c0,0.8,0.7,1.4,2.3,1.4c1,0,1.8-0.2,2.4-0.8
						c0.5-0.5,0.4-0.7,0.7-0.9c0.2-0.1,0.5-0.1,0.9-0.1h1.6c0.3,0,0.4,0,0.6,0.2c0.1,0.1,0.2,0.3,0.2,0.6c0,0.7-0.5,1.7-1.3,2.4
						C-29.7,4.3-31.4,5-33.6,5 M-24.8,4.4h-0.8c-0.3,0-0.5-0.1-0.7-0.2c-0.2-0.2-0.3-0.4-0.3-0.7v-1c0-0.3,0.1-0.6,0.3-0.7
						c0.2-0.1,0.4-0.2,0.7-0.2h0.8v-7c0-1.8,0.5-2.9,1.4-3.8c0.8-0.8,1.9-1.4,3.9-1.4h1.2c0.3,0,0.5,0.1,0.7,0.2
						c0.2,0.2,0.3,0.4,0.3,0.7v1.2c0,0.3-0.1,0.6-0.3,0.7c-0.2,0.1-0.4,0.2-0.7,0.2h-0.2c-0.8,0-1.3,0.2-1.6,0.5
						c-0.4,0.4-0.6,1-0.6,1.8v6.8h2.6c0.3,0,0.5,0.1,0.7,0.2c0.2,0.2,0.3,0.4,0.3,0.7v1c0,0.3-0.1,0.6-0.3,0.7
						c-0.2,0.1-0.4,0.2-0.7,0.2h-2.6v4.6c0,0.4-0.1,0.6-0.3,0.8c-0.2,0.3-0.5,0.4-0.9,0.4h-1.6c-0.4,0-0.7-0.2-0.9-0.4
						c-0.2-0.2-0.3-0.5-0.3-0.8C-24.8,9.1-24.8,4.4-24.8,4.4z M-16.2-9.4c0-0.4,0.1-0.6,0.3-0.8c0.2-0.3,0.5-0.4,0.9-0.4h1.7
						c0.4,0,0.7,0.2,0.9,0.4c0.2,0.2,0.3,0.5,0.3,0.8V9c0,0.4-0.1,0.6-0.3,0.8c-0.2,0.3-0.5,0.4-0.9,0.4h-1.7
						c-0.4,0-0.7-0.2-0.9-0.4C-16,9.7-16.2,9.4-16.2,9V-9.4z M-52.2-1.2c0.2,1.7,1.5,3,3.5,3c2,0,3.3-1.3,3.5-3
						C-45.2-1.2-52.2-1.2-52.2-1.2z M3.3,7.1c0.3,0,0.5,0.1,0.7,0.2c0.2,0.2,0.3,0.4,0.3,0.7v1.3c0,0.5-0.1,0.8-0.3,0.9
						c-0.2,0.2-0.4,0.3-0.7,0.3c-0.2,0-0.5,0-0.8-0.1L-8.8,9.4c-0.3,0-0.5-0.1-0.6-0.3c-0.1-0.1-0.2-0.3-0.2-0.6V7.9
						c0-0.3,0.1-0.4,0.2-0.5c0.1-0.1,0.3-0.2,0.6-0.2L3.3,7.1L3.3,7.1z M-3,5c-4.9,0-7.6-3.8-7.6-7.9c0-4.3,3-8.1,7.7-8.1
						c2.4,0,4.7,0.9,6,2.5c0.6,0.7,1,1.6,1,2.2c0,0.2,0,0.4-0.2,0.5C3.8-5.7,3.7-5.6,3.4-5.6H1.1c-0.5,0-0.8-0.2-1-0.5
						c-0.7-1-1.6-1.5-3-1.5C-5-7.6-6.4-6-6.5-4.2h9.8c0.4,0,0.7,0.1,1,0.3c0.2,0.2,0.4,0.6,0.4,1.2c0,1.8-0.6,3.8-1.8,5.2
						C1.6,4-0.3,5-3,5 M-6.5-1.2c0.2,1.7,1.5,3,3.5,3c2,0,3.3-1.3,3.5-3H-6.5z"/>
				</g>
			</g>
		</g>
	</g>
</g>
</svg>
